<svg xmlns="http://www.w3.org/2000/svg" width="230" height="310" viewBox="0 0 230 310"><rect width="100%" height="100%" fill="#FFA500"/><path fill="#FFFFFF" d="M45.69 156.165v-2.07q-.19-.23-.41-.32-.23-.1-.48-.1-.25 0-.46.1-.2.09-.34.28-.15.19-.22.49-.08.29-.08.69 0 .41.07.69.06.28.18.46t.3.26q.17.08.39.08.35 0 .59-.15.24-.14.46-.41Zm0-5.32h1.11v6.69h-.68q-.22 0-.28-.2l-.09-.45q-.28.32-.64.52-.37.2-.85.2-.38 0-.69-.16-.32-.16-.54-.46-.23-.3-.35-.74-.13-.44-.13-1.01 0-.51.14-.95.14-.44.4-.76.26-.33.63-.51.36-.18.82-.18.38 0 .66.12.27.12.49.33v-2.44Zm3.09 3.85h2.09q0-.22-.06-.41-.06-.19-.18-.33-.12-.15-.31-.23-.18-.08-.43-.08-.48 0-.76.27-.28.28-.35.78Zm2.83.67h-2.86q.03.36.13.62.1.25.26.42.16.17.39.25.22.09.49.09t.46-.07q.2-.06.35-.13.14-.08.25-.14.11-.07.22-.07.14 0 .2.11l.32.4q-.18.22-.41.36-.23.15-.48.24-.25.09-.51.12-.26.04-.5.04-.48 0-.9-.16-.41-.16-.72-.47-.3-.32-.48-.78-.17-.46-.17-1.07 0-.47.15-.89.15-.41.44-.72.28-.31.7-.49.41-.18.93-.18.43 0 .8.14.37.14.64.41.26.27.41.65.15.39.15.89 0 .26-.05.34-.06.09-.21.09Zm4.16-1.95-.25.4q-.04.07-.09.1-.05.03-.13.03t-.17-.04q-.09-.05-.22-.1-.12-.06-.27-.1-.16-.05-.37-.05-.33 0-.51.14-.19.14-.19.36 0 .15.1.25.09.11.25.18.16.08.36.14.21.06.42.13.2.07.41.17.2.09.36.23.16.14.26.34.09.2.09.48 0 .33-.12.61-.12.28-.35.49-.23.2-.58.32-.34.11-.79.11-.24 0-.47-.04-.23-.04-.43-.12-.21-.08-.39-.18-.18-.1-.31-.23l.25-.42q.05-.07.12-.12.07-.04.17-.04t.2.06q.09.06.21.13t.29.12q.16.06.41.06.2 0 .34-.04.14-.05.24-.13.09-.07.13-.18.04-.1.04-.2 0-.17-.09-.27-.1-.1-.26-.18-.16-.08-.36-.14-.21-.06-.42-.13-.22-.07-.42-.17-.21-.1-.37-.24-.16-.15-.25-.37-.1-.21-.1-.52 0-.28.11-.54.12-.26.33-.45.22-.19.55-.3.32-.12.75-.12.48 0 .87.16t.65.41Zm.93-.5h1.11v4.62H56.7v-4.62Zm1.26-1.34q0 .14-.05.27-.06.12-.16.22-.1.09-.23.15-.13.05-.27.05-.15 0-.28-.05-.13-.06-.22-.15-.09-.1-.15-.22-.06-.13-.06-.27 0-.15.06-.28.06-.13.15-.23.09-.09.22-.15.13-.05.28-.05.14 0 .27.05.13.06.23.15.1.1.16.23.05.13.05.28Zm2.67 3.54q.21 0 .36-.06.16-.05.26-.15.1-.1.15-.24.05-.14.05-.31 0-.34-.2-.54-.21-.2-.62-.2-.41 0-.61.2-.21.2-.21.54 0 .16.06.3.05.14.15.25.1.1.26.15.15.06.35.06Zm1.26 2.63q0-.14-.08-.22-.08-.09-.22-.14-.14-.04-.33-.07-.19-.02-.39-.03l-.44-.02q-.22-.01-.43-.04-.19.11-.3.25-.11.14-.11.32 0 .12.06.23.06.1.19.18.13.08.34.12.21.04.52.04.31 0 .54-.04.22-.05.37-.14.14-.08.21-.19.07-.12.07-.25Zm-.22-4.67H63v.41q0 .2-.24.25l-.42.07q.1.24.1.53 0 .34-.14.61-.14.28-.38.47-.24.2-.57.3-.33.11-.72.11-.13 0-.26-.01l-.24-.04q-.22.13-.22.29 0 .14.13.21.13.06.34.09.21.03.48.03.27.01.55.03.29.03.56.08.27.06.48.18.21.12.34.33.13.21.13.54 0 .3-.16.59-.15.29-.43.52-.29.22-.7.36-.42.13-.95.13-.52 0-.91-.1t-.64-.27q-.26-.17-.39-.39-.12-.22-.12-.45 0-.33.19-.55.2-.22.54-.35-.18-.09-.29-.25-.11-.16-.11-.41 0-.11.04-.22t.11-.21q.08-.11.19-.21.11-.1.26-.17-.35-.19-.55-.51-.2-.31-.2-.73 0-.35.14-.62.14-.28.38-.48.25-.19.58-.29.34-.11.73-.11.3 0 .56.06.26.06.48.18Zm2.99.05.08.36q.14-.14.29-.26.16-.12.33-.2.17-.08.37-.13.2-.05.43-.05.38 0 .67.13.3.13.49.36.2.23.3.55.1.32.1.71v2.94h-1.11v-2.94q0-.42-.19-.65-.2-.24-.59-.24-.29 0-.54.14-.26.13-.48.35v3.34H63.7v-4.62h.68q.21 0 .28.21Zm4.99 1.57h2.1q0-.22-.06-.41-.06-.19-.18-.33-.13-.15-.31-.23-.19-.08-.44-.08-.48 0-.76.27-.27.28-.35.78Zm2.84.67h-2.86q.03.36.13.62.09.25.26.42.16.17.38.25.22.09.49.09t.47-.07q.2-.06.34-.13l.26-.14q.11-.07.21-.07.14 0 .21.11l.32.4q-.19.22-.42.36-.23.15-.48.24-.24.09-.5.12-.26.04-.51.04-.48 0-.89-.16-.41-.16-.72-.47-.31-.32-.48-.78-.18-.46-.18-1.07 0-.47.16-.89.15-.41.43-.72.29-.31.7-.49t.93-.18q.44 0 .81.14.37.14.63.41.27.27.42.65.15.39.15.89 0 .26-.06.34-.05.09-.2.09Zm3.99.8v-2.07q-.19-.23-.41-.32-.23-.1-.48-.1-.25 0-.46.1-.2.09-.34.28-.15.19-.22.49-.08.29-.08.69 0 .41.06.69.07.28.19.46t.3.26q.17.08.39.08.35 0 .59-.15.24-.14.46-.41Zm0-5.32h1.11v6.69h-.68q-.22 0-.28-.2l-.09-.45q-.28.32-.64.52-.37.2-.85.2-.38 0-.69-.16-.32-.16-.54-.46-.23-.3-.35-.74-.13-.44-.13-1.01 0-.51.14-.95.14-.44.4-.76.26-.33.63-.51.36-.18.82-.18.38 0 .66.12.27.12.49.33v-2.44Zm5.51 3.42v2.07q.19.23.41.33.22.09.47.09.25 0 .46-.09.2-.09.35-.29.14-.19.22-.5.08-.3.08-.73 0-.76-.26-1.1-.25-.34-.72-.34-.32 0-.56.15-.24.15-.45.41Zm0-3.42v2.64q.28-.29.61-.47.34-.17.78-.17.4 0 .72.16.33.16.55.45.23.3.35.71.12.42.12.94 0 .57-.14 1.03-.14.45-.4.78-.25.33-.62.51-.36.18-.81.18-.21 0-.39-.05-.18-.04-.32-.11-.15-.08-.28-.19-.12-.11-.23-.25l-.05.31q-.03.12-.09.17-.07.05-.18.05h-.74v-6.69h1.12Zm7.3 2.07h.89l-2.52 5.89q-.05.12-.13.18t-.24.06h-.83l.87-1.86-1.87-4.27h.98q.13 0 .2.07.08.06.11.14l.98 2.39q.05.13.09.25l.06.24q.04-.12.08-.25.04-.12.09-.24l.93-2.39q.04-.09.12-.15.08-.06.19-.06Zm4.74 4.62h-1.11v-4.62h.68q.21 0 .28.21l.07.34q.12-.14.26-.25.13-.11.28-.19.15-.08.32-.13.18-.05.38-.05.44 0 .72.24.28.23.42.62.11-.22.27-.39.16-.16.36-.27.19-.1.41-.15.22-.05.44-.05.38 0 .68.12.29.11.5.34.2.22.31.55.1.32.1.74v2.94h-1.11v-2.94q0-.44-.19-.66-.2-.23-.57-.23-.17 0-.32.06-.14.06-.25.17-.11.11-.18.28-.06.17-.06.38v2.94H95.6v-2.94q0-.46-.18-.67-.19-.22-.55-.22-.24 0-.45.12-.21.12-.39.33v3.38Zm8.47-4.69q.51 0 .93.17.42.16.72.47.3.31.46.75.16.44.16.98 0 .55-.16.99-.16.44-.46.75-.3.31-.72.48-.42.17-.93.17-.52 0-.94-.17-.43-.17-.73-.48-.29-.31-.46-.75-.16-.44-.16-.99 0-.54.16-.98.17-.44.46-.75.3-.31.73-.47.42-.17.94-.17Zm0 3.9q.57 0 .85-.38.28-.39.28-1.14 0-.75-.28-1.14-.28-.39-.85-.39-.59 0-.87.4-.28.39-.28 1.13 0 .74.28 1.13.28.39.87.39Zm4.24-5.9v2.57q.27-.25.59-.41.32-.16.76-.16.38 0 .67.13.29.13.49.36.2.23.3.55.1.32.1.71v2.94h-1.11v-2.94q0-.42-.2-.65-.19-.24-.59-.24-.28 0-.54.14-.25.13-.47.35v3.34h-1.12v-6.69h1.12Zm6.4 5.5v-.78q-.48.02-.81.08-.33.06-.53.16-.19.09-.28.22-.09.12-.09.27 0 .29.18.42.17.13.45.13.34 0 .59-.13.25-.12.49-.37Zm-2.35-2.43-.2-.35q.8-.73 1.92-.73.4 0 .72.13.32.13.54.37.22.24.34.56.11.33.11.72v2.92h-.5q-.16 0-.24-.05-.09-.04-.14-.19l-.1-.33q-.17.16-.34.28-.17.11-.35.2-.18.08-.38.12-.2.04-.45.04-.29 0-.54-.08-.25-.08-.43-.23-.18-.16-.28-.39-.1-.24-.1-.55 0-.17.06-.35.06-.17.19-.33t.35-.3q.21-.14.52-.24.3-.1.71-.17.41-.06.94-.08v-.27q0-.46-.2-.68-.2-.23-.57-.23-.27 0-.45.07-.18.06-.31.14-.14.08-.25.14-.11.06-.24.06-.12 0-.2-.06-.08-.06-.13-.14Zm5.59 3.62h-1.11v-4.62h.68q.21 0 .28.21l.07.34q.12-.14.26-.25.13-.11.28-.19.15-.08.32-.13.18-.05.39-.05.43 0 .71.24.28.23.42.62.11-.22.27-.39.17-.16.36-.27.19-.1.41-.15.22-.05.44-.05.38 0 .68.12.3.11.5.34.2.22.31.55.1.32.1.74v2.94h-1.11v-2.94q0-.44-.19-.66-.2-.23-.57-.23-.17 0-.32.06-.14.06-.25.17-.11.11-.18.28-.06.17-.06.38v2.94h-1.12v-2.94q0-.46-.18-.67-.19-.22-.55-.22-.24 0-.45.12-.21.12-.39.33v3.38Zm7.54 0h-1.11v-4.62h.68q.21 0 .28.21l.07.34q.12-.14.25-.25.14-.11.29-.19.15-.08.32-.13.18-.05.38-.05.44 0 .72.24.28.23.42.62.11-.22.27-.39.16-.16.36-.27.19-.1.41-.15.22-.05.44-.05.38 0 .68.12.29.11.5.34.2.22.3.55.11.32.11.74v2.94h-1.11v-2.94q0-.44-.19-.66-.2-.23-.57-.23-.17 0-.32.06t-.26.17q-.11.11-.17.28-.06.17-.06.38v2.94h-1.12v-2.94q0-.46-.18-.67-.19-.22-.55-.22-.24 0-.45.12-.21.12-.39.33v3.38Zm7.3-2.84h2.1q0-.22-.06-.41-.06-.19-.19-.33-.12-.15-.3-.23-.19-.08-.44-.08-.48 0-.76.27-.27.28-.35.78Zm2.84.67h-2.86q.03.36.12.62.1.25.27.42.16.17.38.25.22.09.49.09t.47-.07q.19-.06.34-.13l.26-.14q.11-.07.21-.07.14 0 .21.11l.32.4q-.19.22-.42.36-.23.15-.48.24-.25.09-.5.12-.26.04-.51.04-.48 0-.89-.16-.42-.16-.72-.47-.31-.32-.48-.78-.18-.46-.18-1.07 0-.47.15-.89.16-.41.44-.72.29-.31.7-.49t.93-.18q.44 0 .81.14.36.14.63.41.27.27.42.65.15.39.15.89 0 .26-.06.34-.05.09-.2.09Zm3.99.8v-2.07q-.19-.23-.41-.32-.23-.1-.48-.1-.26 0-.46.1-.2.09-.34.28-.15.19-.23.49-.07.29-.07.69 0 .41.06.69.07.28.19.46t.3.26q.17.08.39.08.35 0 .59-.15.24-.14.46-.41Zm0-5.32h1.11v6.69h-.68q-.22 0-.28-.2l-.09-.45q-.28.32-.65.52-.36.2-.84.2-.38 0-.69-.16-.32-.16-.54-.46-.23-.3-.36-.74-.12-.44-.12-1.01 0-.51.14-.95.14-.44.4-.76.26-.33.63-.51.36-.18.82-.18.38 0 .66.12.27.12.49.33v-2.44Zm6.83 5.5v-.78q-.48.02-.81.08-.33.06-.52.16-.2.09-.29.22-.08.12-.08.27 0 .29.17.42t.45.13q.34 0 .59-.13.25-.12.49-.37Zm-2.35-2.43-.19-.35q.79-.73 1.91-.73.41 0 .73.13t.54.37q.22.24.33.56.12.33.12.72v2.92h-.51q-.15 0-.24-.05-.09-.04-.13-.19l-.1-.33q-.18.16-.35.28-.16.11-.34.2-.18.08-.39.12-.2.04-.45.04-.29 0-.54-.08-.25-.08-.43-.23-.18-.16-.28-.39-.09-.24-.09-.55 0-.17.05-.35.06-.17.19-.33.14-.16.35-.3.21-.14.52-.24.31-.1.72-.17.41-.06.93-.08v-.27q0-.46-.2-.68-.19-.23-.57-.23-.27 0-.44.07-.18.06-.32.14-.13.08-.24.14-.11.06-.25.06-.11 0-.2-.06-.08-.06-.13-.14Zm5.59.35v2.07q.19.23.41.33.23.09.47.09.26 0 .47-.09.2-.09.34-.29.15-.19.23-.5.07-.3.07-.73 0-.76-.25-1.1-.25-.34-.72-.34-.32 0-.56.15-.24.15-.46.41Zm0-3.42v2.64q.28-.29.62-.47.34-.17.78-.17.4 0 .72.16.32.16.55.45.23.3.35.71.12.42.12.94 0 .57-.14 1.03-.14.45-.4.78t-.62.51q-.37.18-.81.18-.22 0-.39-.05-.18-.04-.33-.11-.15-.08-.27-.19-.12-.11-.24-.25l-.05.31q-.02.12-.09.17-.06.05-.18.05h-.73v-6.69h1.11Zm6.9 5.32v-2.07q-.19-.23-.42-.32-.22-.1-.47-.1-.26 0-.46.1-.2.09-.35.28-.14.19-.22.49-.07.29-.07.69 0 .41.06.69.07.28.19.46t.3.26q.17.08.39.08.34 0 .59-.15.24-.14.46-.41Zm0-5.32h1.11v6.69h-.68q-.22 0-.28-.2l-.09-.45q-.28.32-.65.52-.36.2-.84.2-.38 0-.69-.16-.32-.16-.55-.46-.22-.3-.35-.74-.12-.44-.12-1.01 0-.51.14-.95.14-.44.4-.76.26-.33.63-.51.36-.18.81-.18.39 0 .67.12.27.12.49.33v-2.44Zm5.27 3.85h2.1q0-.22-.06-.41-.06-.19-.19-.33-.12-.15-.3-.23-.19-.08-.44-.08-.48 0-.76.27-.27.28-.35.78Zm2.84.67h-2.86q.03.36.12.62.1.25.27.42.16.17.38.25.22.09.49.09t.47-.07q.19-.06.34-.13l.26-.14q.11-.07.21-.07.14 0 .21.11l.32.4q-.19.22-.42.36-.23.15-.48.24-.25.09-.5.12-.26.04-.51.04-.48 0-.89-.16-.42-.16-.72-.47-.31-.32-.48-.78-.18-.46-.18-1.07 0-.47.15-.89.16-.41.44-.72.29-.31.7-.49t.93-.18q.44 0 .81.14.36.14.63.41.27.27.42.65.15.39.15.89 0 .26-.06.34-.05.09-.2.09Zm1.1-4.52h1.11v6.69h-1.11v-6.69Zm3.34 0v2.57q.27-.25.59-.41.33-.16.76-.16.38 0 .67.13.29.13.49.36.2.23.3.55.1.32.1.71v2.94h-1.11v-2.94q0-.42-.2-.65-.19-.24-.59-.24-.28 0-.54.14-.25.13-.47.35v3.34h-1.11v-6.69h1.11Zm6.4 5.5v-.78q-.48.02-.81.08-.33.06-.53.16-.19.09-.28.22-.08.12-.08.27 0 .29.17.42t.45.13q.34 0 .59-.13.25-.12.49-.37Zm-2.35-2.43-.2-.35q.8-.73 1.92-.73.41 0 .73.13.31.13.54.37.22.24.33.56.12.33.12.72v2.92h-.51q-.16 0-.24-.05-.09-.04-.14-.19l-.1-.33q-.17.16-.34.28-.16.11-.34.2-.18.08-.39.12-.2.04-.45.04-.29 0-.54-.08-.25-.08-.43-.23-.18-.16-.28-.39-.1-.24-.1-.55 0-.17.06-.35.06-.17.19-.33.14-.16.35-.3.21-.14.52-.24.31-.1.71-.17.41-.06.94-.08v-.27q0-.46-.2-.68-.2-.23-.57-.23-.27 0-.45.07-.17.06-.31.14-.13.08-.24.14-.11.06-.25.06-.12 0-.2-.06-.08-.06-.13-.14Zm5.91 3.62h-1.11v-3.78l-.4-.06q-.13-.03-.21-.1-.08-.06-.08-.18v-.46h.69v-.34q0-.39.12-.71.12-.31.34-.54.23-.22.55-.33.32-.12.72-.12.32 0 .59.09l-.02.55q-.01.07-.04.11-.03.03-.08.05-.05.02-.12.03-.07.01-.14.01-.2 0-.36.04-.15.04-.26.15-.11.1-.17.28-.05.17-.05.43v.3h1.2v.8h-1.17v3.78Zm2.67-2.84h2.1q0-.22-.06-.41-.06-.19-.18-.33-.12-.15-.31-.23-.19-.08-.44-.08-.48 0-.75.27-.28.28-.36.78Zm2.84.67h-2.86q.03.36.13.62.1.25.26.42.16.17.38.25.23.09.5.09t.46-.07q.2-.06.34-.13l.26-.14q.11-.07.21-.07.14 0 .21.11l.32.4q-.18.22-.41.36-.23.15-.48.24-.25.09-.51.12-.26.04-.5.04-.49 0-.9-.16-.41-.16-.72-.47-.31-.32-.48-.78-.18-.46-.18-1.07 0-.47.16-.89.15-.41.44-.72.28-.31.69-.49.41-.18.93-.18.44 0 .81.14.37.14.63.41.27.27.42.65.15.39.15.89 0 .26-.05.34-.06.09-.21.09Zm4.41-2.45v.46q0 .12-.04.23-.04.11-.11.19l-2.19 2.88h2.27v.86h-3.56v-.46q0-.08.03-.19.04-.1.11-.2l2.21-2.92h-2.22v-.85h3.5Z"/></svg>